<svg 
	id="CaptRAY" 
	xmlns="http://www.w3.org/2000/svg" 
	viewBox="0 0 509.81 509.81">
	<defs>
		<style>.captRay{fill:#fffdfd;}</style>
	</defs>
	<title>captRAY2</title>
	<g id="_000000ff" data-name="#000000ff">
		<path class="captRay" d="M109-1.36h5.56q-47.23,46.43-94.36,93c-7.39,7.24-14.79,14.46-22.08,21.8v-4.58q21.35-21,42.64-42C55.34,52.62,69.65,38.19,84.23,24c8.55-8.37,17-16.88,25.55-25.19Z" transform="translate(1.86 1.36)"/>
		<path class="captRay" d="M138.78-1.36h4.37Q102.08,40,60.91,81.3,29.51,112.86-1.86,144.44v-4.38Q68.43,69.32,138.78-1.36Z" transform="translate(1.86 1.36)"/>
		<path class="captRay" d="M166.3-1.36h4.4Q84.36,87.07-1.86,175.58V171c3.13-3,6.09-6.18,9.15-9.24Q86.76,80.16,166.3-1.36Z" transform="translate(1.86 1.36)"/>
		<path class="captRay" d="M192.82-1.36h4.32Q97.66,102.76-1.86,206.81v-4.65c.87-.87,1.79-1.7,2.63-2.6Q96.79,99.11,192.82-1.36Z" transform="translate(1.86 1.36)"/>
		<path class="captRay" d="M498.49-1.36h3.57c-.69,1.16-1.62,2.3-1.64,3.71,1.65-.18,3.31-.17,5-.35,1.11-.77,1.43-2.29,2.24-3.36H508V4.85a70.87,70.87,0,0,0-4.17,7q-42.51,76.19-85,152.37c-2.62,4.81-5.43,9.52-8,14.39-1.24,0-2.47.1-3.71.16l.28-.48Q438.05,123,469,67.82C480.55,47,492.28,26.26,503.75,5.39a30.58,30.58,0,0,0-5.5.19c-3.31,5.15-6.1,10.62-9.21,15.89L427.63,129.34c-9.52,16.81-19.21,33.53-28.62,50.4a15.38,15.38,0,0,0-5.64,3Q443.28,95.47,492.9,8.05c.33-.72.65-1.45.93-2.2-5-.08-10,.42-15,.52-40.43,1.34-80.86,3-121.3,4.28-5.62.48-11.27.22-16.88.72-25.65.75-51.29,1.78-76.93,2.71q-20.67.66-41.33,1.48c-5.3,0-10.58.61-15.88.52C187.16,36.56,168,57.23,148.63,77.78l-76,81a22,22,0,0,0-3.46,4.12c5.33,0,10.66-.23,16,0-7.06.41-14.15.17-21.21.49l.28-.38q69.42-74.28,139-148.4c.83-.77,1.53-2,2.84-1.83Q351.22,7.58,496.31,2.35C497,1.1,497.71-.15,498.49-1.36Z" transform="translate(1.86 1.36)"/>
		<path class="captRay" d="M417.82,178.47Q463,96.18,508,13.81v6.68c-1.72,2.18-2.78,4.76-4.19,7.13q-41.07,75.18-82.21,150.32a2.82,2.82,0,0,0-.24.36C420.14,178.4,419,178.44,417.82,178.47Z" transform="translate(1.86 1.36)"/>
		<path class="captRay" d="M428.44,178.14C454.83,128.6,481.57,79.25,508,29.7v6.46C492.21,65.24,476.67,94.42,461,123.54c-9.78,18.28-19.65,36.52-29.39,54.83A13.6,13.6,0,0,0,428.44,178.14Z" transform="translate(1.86 1.36)"/>
		<path class="captRay" d="M437,179.75Q472.45,112.26,508,44.82v7.52c-2.25,3.29-3.8,7-5.75,10.47Q477,110.75,451.76,158.69c-3.57,6.72-7,13.51-10.67,20.19-.54.88-1,1.77-1.52,2.68C438.72,180.94,437.88,180.32,437,179.75Z" transform="translate(1.86 1.36)"/>
		<path class="captRay" d="M284.92,149.27c5.48-4.45,12.48-7.37,19.62-7a18.53,18.53,0,0,1,11.94,4.92c-2.1,2.76-4.31,5.43-6.41,8.18a11.8,11.8,0,0,0-10.61-3.93,20,20,0,0,0-14.28,9.31c-2.41,3.79-3.54,8.72-1.89,13a10.61,10.61,0,0,0,8,6.58c5.3.95,10.66-1.25,14.63-4.69,1,2.62,2.19,5.15,3.13,7.78-5.29,3.86-11.71,6.49-18.35,6.22a18,18,0,0,1-13.2-6,18.7,18.7,0,0,1-4.17-14.26C274.22,161.5,278.78,154.27,284.92,149.27Z" transform="translate(1.86 1.36)"/>
		<path class="captRay" d="M185.56,147.46c12.19-.4,24.38-1,36.56-1.54-.6,3.06-1.29,6.1-1.81,9.16-4.6.24-9.21.32-13.81.61Q202.77,174,199,192.39c-3,.1-6.05.16-9.06.35q3.71-18.35,7.45-36.68c-4.6.3-9.22.22-13.82.64C184.31,153.63,184.82,150.52,185.56,147.46Z" transform="translate(1.86 1.36)"/>
		<path class="captRay" d="M372.69,150.92c9.13-.42,18.26-.78,27.4-1.18-.51,2.21-1,4.43-1.37,6.67a96.62,96.62,0,0,1-10.35.45c-1.87,9.18-3.71,18.36-5.6,27.54-2.24,0-4.46.28-6.69.35,1.7-9.19,3.78-18.3,5.48-27.49-3.44.07-6.87.2-10.3.48C371.77,155.47,372.19,153.19,372.69,150.92Z" transform="translate(1.86 1.36)"/>
		<path class="captRay" d="M346.92,152.29c3-.06,6.05-.34,9.09-.34,3.49,0,7.27-.8,10.47,1a10.3,10.3,0,0,1,5.24,10.15c-.63,6.83-5.82,12.69-12.13,15.05-3.67,1.44-7.66.87-11.49,1.21-.53,2.32-1,4.66-1.5,7a64.92,64.92,0,0,0-6.69.22c2.34-11.43,4.6-22.88,7-34.3m5.3,6.56c-.86,4.64-1.91,9.25-2.76,13.9,3.27-.67,6.77.26,9.89-1.11a9.38,9.38,0,0,0,5.48-7.38,5.12,5.12,0,0,0-4.28-5.66C357.78,158.29,355,158.87,352.22,158.85Z" transform="translate(1.86 1.36)"/>
		<path class="captRay" d="M313.3,166.29c2.1-7.82,10-14.17,18.23-13.43a9.93,9.93,0,0,1,8.3,5.71,11,11,0,0,1,.76,6.73q-2.13,10.56-4.28,21.11c-2.28.07-4.55.22-6.82.4.56-2.32,1-4.67,1.47-7-4.62.34-9.26.39-13.89.63-.43,2.31-1,4.59-1.38,6.91-2.26.06-4.53.09-6.79.24,1.53-7.09,2.88-14.21,4.4-21.3m8.79-3.76c-2.87,3-2.58,7.47-3.65,11.24,4.61-.42,9.25-.43,13.88-.56.47-2.8,1.21-5.55,1.61-8.36a5.26,5.26,0,0,0-2.82-4.72C328,158.61,324.29,160.16,322.09,162.53Z" transform="translate(1.86 1.36)"/>
		<path class="captRay" d="M251.58,156.38c7.8-.25,15.59-.76,23.39-.9-.5,2.26-.88,4.55-1.42,6.8-5.56.05-11.12.34-16.67.66-.39,2.32-1,4.61-1.31,6.94,3.77-.1,7.52-.37,11.29-.54-.61,2.24-.94,4.55-1.47,6.81-3.74,0-7.47.4-11.2.51-.61,2.29-1,4.64-1.52,7,5.58-.21,11.16-.57,16.74-.69-.55,2.2-.91,4.44-1.37,6.66-4.36.51-8.77.25-13.14.63-3.44.32-6.9.13-10.33.46C246.91,179.24,249.19,167.8,251.58,156.38Z" transform="translate(1.86 1.36)"/>
		<path class="captRay" d="M240.59,156.5a49.35,49.35,0,0,0,6.66-.32c-2.19,11.45-4.62,22.86-6.91,34.29-2.28.11-4.56.13-6.81.42,1-4.59,1.88-9.2,2.82-13.79-4.59.07-9.18.38-13.78.58-1.08,4.56-1.86,9.2-2.89,13.78-2.24,0-4.48,0-6.72.23,2.34-11.43,4.62-22.87,7-34.29,2.26,0,4.5-.3,6.75-.32-.94,4.6-2,9.19-2.75,13.82,4.57-.1,9.14-.56,13.71-.57C238.78,165.75,239.52,161.09,240.59,156.5Z" transform="translate(1.86 1.36)"/>
		<path class="captRay" d="M118,175.72c4.39-.22,8.79-.33,13.19-.28a68,68,0,0,1,40.12,15.08c16,12.71,26.16,32.8,26,53.34.21,20.67-10.28,41.22-27.51,52.74,6.92,14.3,14,28.52,21,42.79-11.7.32-23.4.69-35.1,1-5.48-11-11-21.93-16.45-32.92-12.34.39-24.68.87-37,1.26q.87,16.57,2,33.12c-11,.37-22.09.61-33.14,1-3.27-55.17-6.86-110.33-10.19-165.5,19-.52,38.06-1.11,57.1-1.6M96,209.4c.37,10,1.24,19.9,1.73,29.87.85,12.17,1.46,24.36,2.34,36.54,9.52-.39,19-.48,28.56-.88a59.64,59.64,0,0,0,8.66-.48,31.77,31.77,0,0,0,17.59-8.95,32.28,32.28,0,0,0,9.29-23.71,34.67,34.67,0,0,0-32-33.23c-3.4-.27-6.79.18-10.19.17C113.33,208.83,104.69,209.33,96,209.4Z" transform="translate(1.86 1.36)"/>
		<path class="captRay" d="M46.82,181.54l.42-.42a47.12,47.12,0,0,1,.21,4.9,38.86,38.86,0,0,0-5.92,6c-14.41,15.5-28.95,30.88-43.39,46.36v-4.84Q22.49,207.53,46.82,181.54Z" transform="translate(1.86 1.36)"/>
		<path class="captRay" d="M377.33,211c4.13-7.09,8-14.35,12.3-21.33-.69,2.49-.24,5.09-.63,7.61-8.34,14.37-16.45,28.88-24.73,43.3a10.34,10.34,0,0,1-1.21-4.44c.35-.36.85-.63,1-1.15.65-1.8,1.78-3.36,2.56-5.09C370.13,223.57,373.77,217.32,377.33,211Z" transform="translate(1.86 1.36)"/>
		<path class="captRay" d="M402.86,192.73c9.31-.34,18.61-.49,27.92-.83.86,13.93,1.75,27.84,2.59,41.77a54.17,54.17,0,0,1-20,46.17,52.25,52.25,0,0,1-18.59,9.61c.75,14.65,1.77,29.29,2.67,43.95-9.3.33-18.59.52-27.88.82-1-14.64-1.81-29.3-2.79-43.93A58.72,58.72,0,0,1,328,260.75a56.63,56.63,0,0,1-6.77-24.56c-.88-13.69-1.71-27.37-2.57-41.05,9.33-.35,18.66-.52,28-.83.78,11.25,1.41,22.52,2.13,33.78.37,4.09.26,8.23,1,12.28a29.51,29.51,0,0,0,15.92,20.4,28.48,28.48,0,0,0,19.55,2.08,27,27,0,0,0,20.19-28.19C404.65,220.68,403.75,206.7,402.86,192.73Z" transform="translate(1.86 1.36)"/>
		<path class="captRay" d="M228.38,205.44c15.92-10.38,37.27-11.23,54.24-2.88,17,8,29.73,24.67,32.62,43.3.92,6.25.93,12.58,1.47,18.86,1.41,23.65,3,47.29,4.36,70.94-9.33.16-18.64.59-28,.75-.64-9.34-1.18-18.68-1.75-28-18.7.39-37.41,1.14-56.12,1.49.3,9.39,1.11,18.76,1.63,28.14-9.29.32-18.59.54-27.88.82q-2.76-42.61-5.31-85.25c-1.09-18.91,8.63-38.05,24.7-48.14m16.94,23a27,27,0,0,0-13.6,21c-.32,5.12.4,10.24.58,15.36.36,5.74.78,11.47,1,17.21,18.76-.48,37.51-1.07,56.27-1.57-.62-9.46-1.17-18.92-1.78-28.37a28.43,28.43,0,0,0-4.31-13.23,29.54,29.54,0,0,0-19.72-13.45A28,28,0,0,0,245.32,228.45Z" transform="translate(1.86 1.36)"/>
		<path class="captRay" d="M381.34,224.81c2.86-5.3,6-10.44,8.68-15.85.14,1.94.32,3.88.39,5.82-6,11.29-12.45,22.37-18.63,33.58a28.39,28.39,0,0,1-2.69-1.54C373.14,239.46,377.26,232.15,381.34,224.81Z" transform="translate(1.86 1.36)"/>
		<path class="captRay" d="M378.75,249.89c4.19-7.53,8.26-15.13,12.44-22.67.15,1.88.23,3.76.28,5.64-2.6,4.6-5,9.29-7.64,13.87a23,23,0,0,0-1.11,2.42A8.45,8.45,0,0,1,378.75,249.89Z" transform="translate(1.86 1.36)"/>
		<path class="captRay" d="M447,243.91l1.32.6c19.92,12.26,39.68,24.79,59.65,37v4.26c-20.48-12.79-41-25.48-61.49-38.29C446.66,246.27,446.82,245.09,447,243.91Z" transform="translate(1.86 1.36)"/>
		<path class="captRay" d="M315.09,508.45q69.48-113.9,138.79-227.89c18.05,10.62,36,21.4,54.07,32v4c-15.42-9.2-30.89-18.32-46.32-27.49a61.72,61.72,0,0,0-6.75-3.73Q387,396.92,319,508.45Z" transform="translate(1.86 1.36)"/>
		<path class="captRay" d="M333.18,288.62c.85.69,1.74,1.32,2.62,2-1.1,2-2.25,3.89-3.3,5.88-.14-2.06-.32-4.13-.29-6.2C332.52,289.72,332.84,289.17,333.18,288.62Z" transform="translate(1.86 1.36)"/>
		<path class="captRay" d="M342.17,295c.87.56,1.74,1.11,2.64,1.61-3.65,6.7-7.48,13.29-11.09,20-.1-2-.25-3.94-.31-5.91Q337.75,302.85,342.17,295Z" transform="translate(1.86 1.36)"/>
		<path class="captRay" d="M409.11,298.76c1.27-.6,2.52-1.24,3.74-1.95a69.64,69.64,0,0,0-3.49,6.19C409.28,301.58,409.18,300.17,409.11,298.76Z" transform="translate(1.86 1.36)"/>
		<path class="captRay" d="M351.47,299.81l2.24.9-.08,1.11c-6.19,11.72-12.77,23.25-19,35,.48-2.17-.09-4.37.06-6.55C340.43,320.18,345.84,309.93,351.47,299.81Z" transform="translate(1.86 1.36)"/>
		<path class="captRay" d="M-1.86,312.42c11.62,2.39,23.37,4.16,35,6.41,5.29,1.25,10.71,1.92,16.05,3,2.27.48,4.56.79,6.86,1.09.06,1.14.13,2.28.21,3.41-19.36-3.57-38.78-6.87-58.14-10.45Z" transform="translate(1.86 1.36)"/>
		<path class="captRay" d="M284.32,446.6q35.13-65.44,70.22-130.91c.14,2,.29,3.95.29,5.92-7.6,13.73-14.86,27.66-22.34,41.45Q309.28,406.44,286,449.77c-3-.14-6-1-9-1.48L11.83,398c-4.55-1-9.15-1.63-13.69-2.64v-3Q83.93,408.7,169.7,425C207.91,432.13,246.09,439.51,284.32,446.6Z" transform="translate(1.86 1.36)"/>
		<path class="captRay" d="M465.27,317.53c3.64,1.68,7,3.94,10.6,5.85,10.69,6.05,21.4,12.05,32.08,18.13v3.85c-13.24-7.52-26.52-15-39.75-22.49a12.57,12.57,0,0,0-2.11-.81q-36.4,57.24-73,114.39c-15.34,24-30.58,48.06-46,72h-3.91Q402.59,415.36,462,322.3C463.14,320.77,463.91,318.79,465.27,317.53Z" transform="translate(1.86 1.36)"/>
		<path class="captRay" d="M355.72,334c.38,1.74.84,3.45,1.19,5.2l-.77-.3c0,.27.1.79.13,1.05-.41.8-.82,1.61-1.2,2.42q-35.35,67.51-70.92,134.9c-29.57-5.55-59.08-11.4-88.64-17.05q-98.68-19-197.37-38.12v-3.23c4.79.56,9.47,1.82,14.24,2.61L242.29,466c13.36,2.5,26.68,5.29,40.08,7.64,17.79-33.59,35.4-67.27,53.12-100.89C342.21,359.8,349.15,347,355.72,334Z" transform="translate(1.86 1.36)"/>
		<path class="captRay" d="M117.49,334.07c2.25.29,4.47.78,6.73,1l.21,0c4.82,1.11,9.72,1.77,14.58,2.65a26.14,26.14,0,0,0,1.45,3.08l-.07.32c-7.59-1.11-15.11-2.71-22.68-3.92C117.63,336.2,117.55,335.13,117.49,334.07Z" transform="translate(1.86 1.36)"/>
		<path class="captRay" d="M-1.86,339.44h.93c20.26,3.6,40.48,7.47,60.76,11a14.22,14.22,0,0,0,4.28,4c-22-3.87-43.95-8.08-66-11.9Z" transform="translate(1.86 1.36)"/>
		<path class="captRay" d="M324.64,348.67a10.68,10.68,0,0,0,4.93-2.36,59.19,59.19,0,0,0-3.61,6.22l-37.67,68.83c-.34.52-.7,1.46-1.52,1.06Q201.9,406.54,117,390.85c-39.62-7.31-79.21-14.79-118.84-22V366c1.1-.48,2.45.35,3.64.42l279.33,51.89a29.09,29.09,0,0,0,5,.77c4.81-8.46,9.35-17.08,14.08-25.58C308.3,378.55,316.61,363.68,324.64,348.67Z" transform="translate(1.86 1.36)"/>
		<path class="captRay" d="M379.34,347.76l4.05-.13-.29.47Q336.51,428.24,290,508.45h-4.1c29.23-50.19,58.25-100.5,87.49-150.68C375.55,354.53,377.36,351.09,379.34,347.76Z" transform="translate(1.86 1.36)"/>
		<path class="captRay" d="M197.3,351.35c1-.71,1.93-1.45,2.91-2.17,2.39,2.45,5.9,2.69,9.06,3.39,4.51,0,9-.24,13.56-.29a7.09,7.09,0,0,0,2.23.8c21.61,3.79,43.18,7.73,64.78,11.53,1.4-2.26,2.6-4.63,4-6.88a59.65,59.65,0,0,0,4.3-7.63c1.29,0,2.58-.06,3.88-.07l-.46.79q-5,8.67-9.94,17.43c-22.7-3.94-45.37-8.09-68.06-12.1C214.81,354.51,206,353.15,197.3,351.35Z" transform="translate(1.86 1.36)"/>
		<path class="captRay" d="M311.49,349.86a23.56,23.56,0,0,1,3.85-.23l-.43.7c-8.58,15-16.75,30.25-25.4,45.21-71.17-13.12-142.41-25.87-213.58-39,5.56-.1,11.15-.7,16.7-.18,20,3.89,40,7.31,60,11q66.76,12.12,133.52,24.31c.71,0,1.76.59,2.18-.31C296.05,377.54,303.86,363.75,311.49,349.86Z" transform="translate(1.86 1.36)"/>
		<path class="captRay" d="M475.43,351.33a33.54,33.54,0,0,1,4.09,2Q493.71,361,508,368.58v3.88c-10.37-5.65-20.79-11.2-31.2-16.78-5.24,7.3-10,14.94-15.09,22.36q-43.53,65.22-87.1,130.41h-4.07c12.29-18.26,24.46-36.59,36.69-54.88Q441.29,402.44,475.43,351.33Z" transform="translate(1.86 1.36)"/>
		<path class="captRay" d="M485.07,382.43c7.72,3.67,15.23,7.75,22.88,11.55v4c-5.21-2.69-10.44-5.32-15.66-8A44,44,0,0,0,486,387c-11.13,16.23-22.53,32.29-33.75,48.46q-18.19,26-36.36,52.07c-4.89,6.87-9.58,13.88-14.55,20.68l.5.21H397Q441.08,445.47,485.07,382.43Z" transform="translate(1.86 1.36)"/>
	</g>
</svg>