<svg 
	id="Layer_1" 
	data-name="Layer 1" 
	xmlns="http://www.w3.org/2000/svg" 
	viewBox="0 0 448.43 102.33">
	<defs>
		<style>.cardanoTools{fill:#fff;}</style>
	</defs>
	<title>cardano tools</title>
	<path class="cardanoTools" d="M60.42,101.86a14.33,14.33,0,0,1,6,.51c-.78,1-1.56,1.94-2.32,2.93l-2.49.12c-.37-1.19-.78-2.37-1.19-3.56M44.9,98.65A6.82,6.82,0,0,1,50,100.33c-.78,1.16-1.53,2.35-2.24,3.56a8.07,8.07,0,0,1-2.84-5.24M31.79,91.76c1.38,0,2.76,0,4.13,0-.4,1.49-.87,3-1.37,4.44-1.33-1.2-2.78-2.45-2.76-4.4M444.49,53.2c4.4-4.92,12.67-5,17.66-.94,1.85,1.54,2.46,4,3.16,6.15a37.07,37.07,0,0,1-6,0c-1.26-1.11-2.11-2.64-3.54-3.57-2.32-.4-5.4-.6-6.64,1.89-1,2.93,2.55,4,4.73,4.51,4.09,1,9.23,2,10.94,6.4.38,2.17.56,4.72-.87,6.59a10.05,10.05,0,0,1-7.7,4.11c-3.61.2-7.65.32-10.66-2-2.43-1.64-3.42-4.51-4.39-7.13,2.12-.1,4.24-.15,6.36-.19,1,2,2.22,4.56,4.86,4.58,2.31.32,6.43,0,6-3.28.23-2.5-2.7-3-4.51-3.58-4-.9-8.82-2-10.75-6.06-.72-2.48-.56-5.52,1.34-7.46m-36.25,2.42c-3.41,2.4-3.36,7-3.11,10.76a7.31,7.31,0,0,0,4.43,6.75c3.08,1.34,6.62-.95,7.63-3.93,1.35-3.87,1.39-8.48-.95-12a6.07,6.07,0,0,0-8-1.59M407.3,50a13.09,13.09,0,0,1,14.32,4.1,17.32,17.32,0,0,1-.14,20c-4.93,6.47-16.12,6.08-20.56-.75C396,65.85,397.88,53,407.3,50m-28.67,5.43c-2.92,1.8-3.57,5.58-3.79,8.73.25,3.28,1,7.43,4.47,8.83,3.86,1.85,8.36-1.87,8.41-5.87.12-3.37.73-7.28-1.52-10.13a6.08,6.08,0,0,0-7.57-1.56m-.17-5.77a13,13,0,0,1,13.38,4.76c4.12,6.18,3.9,15.67-1.54,21C385,80.25,375.84,79.75,371.47,74c-3.05-3.53-3.08-8.49-2.79-12.88a12.83,12.83,0,0,1,9.78-11.45m-69.61,5.55c-3.3,1.58-4.15,5.62-4.23,9,.09,3.28,1,7.3,4.33,8.76,3,1.58,6.87-.37,8-3.42,1.38-3.73,1.59-8.24-.48-11.77a6.06,6.06,0,0,0-7.58-2.52m-.79-5.51c6.45-1.8,13.84,2.2,15.62,8.73,1.22,5.32,1.09,11.56-2.59,16-4.74,5.6-14.33,5.78-19.25.32-3.81-4.17-4.28-10.33-3.1-15.61a12.87,12.87,0,0,1,9.32-9.4m-37.85.43q2.91,0,5.82,0c.15.84.29,1.67.45,2.5,2.31-1.7,4.86-3.54,7.89-3.34,4.25-.32,8.49,3,8.79,7.32.31,7.11,0,14.24.16,21.36h-6.46c0-6.15.07-12.3,0-18.44.15-2.28-1.56-4.76-4-4.69-2.53-.47-4.5,1.32-6.33,2.75,0,6.79,0,13.59,0,20.39h-6.34c0-9.29-.06-18.59,0-27.88M247.47,67.33c.24,1.73-.51,4.11,1.28,5.21,2,1.77,5.05.83,7-.62,2.12-1.53,1.5-4.42,1.47-6.66-3.36-.08-7.07-.41-9.74,2.07M246.18,51c5.63-3.12,14.56-2,17.17,4.5,1,7.46-.62,15.13,1.35,22.5-2.05,0-4.09,0-6.15,0l-1.23-1.81c-3.27,1.87-7.2,3.55-10.88,1.74-6-1.53-7.7-10.09-3.26-14.12,3.84-3.25,9.13-3.21,13.89-3.07a32.72,32.72,0,0,0-.43-4.44c-1.09-1.86-3.49-1.79-5.36-1.63-2.17,0-3.05,2.3-4.16,3.77-2.1,0-4.21,0-6.31-.12.85-3,2.26-6.16,5.37-7.36m-52.43-.85c1.89,0,3.78,0,5.66,0,.13.77.25,1.55.37,2.33,2.29-2.28,5.28-3.69,8.56-3.09,0,2.19,0,4.4,0,6.59-2.94,0-6.27-.32-8.31,2.25.07,6.59,0,13.17,0,19.75h-6.34c0-9.29-.06-18.59,0-27.88M171.07,67.46c0,1.38,0,2.75,0,4.12,1.54.85,3.08,2.27,5,1.88a7.12,7.12,0,0,0,4.76-3.31,41.26,41.26,0,0,0,.28-4.85c-3.48-.16-7.3-.49-10,2.16m-3.56-14.88c4.54-3.79,11.7-4.46,16.57-.89a10,10,0,0,1,3.67,7.92c.12,6.15-.29,12.33.38,18.47-2.61,0-5.48.37-7.58-1.53-3.05,1.62-6.66,3.18-10.07,1.57-5.69-1.34-8.23-8.94-4.41-13.42,3.71-4.21,9.89-4,15-3.9-.14-2.12-.21-5-2.55-5.86a9.29,9.29,0,0,0-4.88.07c-1.34.7-1.85,2.25-2.64,3.45-2.08,0-4.17,0-6.25,0,.5-2.11.93-4.46,2.73-5.89M340.65,40.25c9.94,0,19.86.06,29.8,0,.05,1.85.07,3.7.12,5.56-3.86.06-7.71,0-11.56,0q0,16.14,0,32.27c-2.3,0-4.59,0-6.89-.06q.08-16.1,0-32.19c-3.83,0-7.66,0-11.49,0,0-1.85,0-3.69,0-5.54M131.51,49c2-4.8,6.64-8.85,12-8.8,3.65-.09,7.65-.33,10.72,2,3.68,2.19,5.13,6.45,5.9,10.42-2.31.06-4.62.06-6.93,0C152.78,50,151.78,47,149.05,46c-3.69-1-8.64-.6-10.5,3.28a26,26,0,0,0-.28,19.52c1.78,4.49,7.72,5.32,11.62,3.29,2.35-1.26,2.83-4.1,3.38-6.45,2.26-.15,4.52-.18,6.79-.18-.38,4-2,8.21-5.46,10.55-3.58,2.68-8.34,2.64-12.58,2.26-7.07-.87-11.76-8.09-11.91-14.81,0-4.84-.61-9.94,1.4-14.49M430.09,38.07c2.18,0,4.37,0,6.57,0,0,13.3,0,26.61,0,39.92-2.2,0-4.4,0-6.6,0,0-13.33-.06-26.65,0-40M220.46,55.6c-3.62,2.54-3.3,7.54-3,11.44.16,3.28,2.91,6.52,6.34,6.42,2.29-.46,5.1-2,4.94-4.69,0-3.74.31-7.53-.23-11.24a6.14,6.14,0,0,0-8-1.93m8.25-17.52L235,38c.06,13.34,0,26.67,0,40-1.79,0-3.59,0-5.37.06-.17-.77-.34-1.55-.5-2.33-2.18,1.71-4.77,3-7.63,2.71-4.77.39-8.66-3.57-10-7.86-1.48-5.21-1.43-11.12,1.25-15.94a10.11,10.11,0,0,1,9.5-5.26c2.31.1,4.32,1.36,6.41,2.21q0-6.76,0-13.52M36,23.06c7.28-2.71,15.15-1.47,22.73-1.78,1.94.21,4.39-.58,5.8,1.18.18,1.23-.55,2.87-2,2.76-6.07.19-12.15-.08-18.22.08A24.54,24.54,0,0,0,28,33.44a24.74,24.74,0,0,0-6.34,22.08C23.75,67.26,35.32,76.89,47.38,76c4.28,0,8.55,0,12.83,0a60.4,60.4,0,0,0,.22-9.22c-5.59-.18-11.21.22-16.79-.2a16,16,0,0,1-14-12.35c-.41-3.32-.48-6.85.87-10a17.15,17.15,0,0,1,15.3-9.79c7.6,0,15.2,0,22.8,0a13.22,13.22,0,0,1,4.92,1c.06,18.33,0,36.67.06,55h8.23c0-14.41-.08-28.81,0-43.22,7.77,0,15.54,0,23.31,0,0-2.73,0-5.46,0-8.19-7.72-.34-15.5.42-23.18-.33-.61-1.6-.44-4,1.72-4.1,7.33-.2,14.66,0,22-.08,1.32,0,3.63.12,3.4,2,.23,4.82.07,9.66,0,14.49-7.62.43-15.27.16-22.89.17-.12,10.19,0,20.38-.05,30.57-.06,4.37.44,8.84-1,13.07-5.36-.38-10.93.86-16.1-1q0-27.45,0-54.89c-8.27,0-16.54-.13-24.8,0a11.84,11.84,0,0,0-1.53,23.38c7.17.64,14.42-.49,21.55.66.18,5.6.15,11.21,0,16.82-4.9.29-9.81.12-14.71.17-4.17-.05-8.46.23-12.45-1.2A30.73,30.73,0,0,1,19.43,62.41c-2.05-5.2-3.33-11-2-16.54,1.51-10.24,9-19.13,18.63-22.81m64.47-2.13c1.05.53,2.12,1,3.19,1.51,0,.84,0,1.68,0,2.53-1.06.48-2.1,1-3.13,1.48-.51-1-1-1.95-1.59-2.9.52-.87,1-1.74,1.53-2.62M90,12.23l3.11.82c.28.83.56,1.65.85,2.46-.82.67-1.65,1.35-2.45,2-.67-.77-1.35-1.51-2-2.25.18-1,.37-2.05.54-3.07M76,6.07a13.49,13.49,0,0,1,3.24,0,26.55,26.55,0,0,1,2,2.13c-1.14,1-2.19,3.1-3.91,1.73l-1.45.19C76,8.78,76,7.43,76,6.07M60.77,4.6,63.2,3.1l2.1,1.59c-.33,1-.66,2-1,3-.95,0-1.91,0-2.85.08-.21-1-.45-2.1-.71-3.14" transform="translate(-16.87 -3.1)"/>
</svg>